<?xml version="1.0" encoding="utf-8"?><svg version="1.1" id="Layer_1" xmlns="http://www.w3.org/2000/svg" xmlns:xlink="http://www.w3.org/1999/xlink" x="0px" y="0px" width="123.583px" height="110.64px" viewBox="0 0 123.583 110.64" enable-background="new 0 0 123.583 110.64" xml:space="preserve"><g><path fill-rule="evenodd" clip-rule="evenodd" stroke="#000000" stroke-width="0.5" stroke-miterlimit="2.6131" d="M23.838,62.429 L0.352,85.799l23.486,24.071V94.695c15.025,0.074,26.659-4.704,34.892-14.394c1.013-1.192,1.965-2.454,2.855-3.786 c0.995,1.562,2.069,3.023,3.223,4.382c8.24,9.698,19.891,14.477,34.936,14.393v15.175l23.486-24.07l-23.486-23.37v13.3 c-9.197,0.059-16.012-2.497-20.432-7.699c-4.93-5.8-7.615-15.109-8.055-27.966V0.25H52.281v40.4 c-0.438,12.861-3.125,21.578-8.054,27.38c-4.414,5.193-11.213,7.749-20.389,7.698V62.429L23.838,62.429z"/></g></svg>